<svg xmlns="http://www.w3.org/2000/svg" viewBox="0 0 32 32">
  <rect width="32" height="32" rx="4" fill="#1a1a2e"/>
  <!-- G -->
  <rect x="2" y="4" width="3" height="3" fill="#e8863a"/>
  <rect x="5" y="4" width="3" height="3" fill="#e8863a"/>
  <rect x="8" y="4" width="3" height="3" fill="#e8863a"/>
  <rect x="2" y="7" width="3" height="3" fill="#e8863a"/>
  <rect x="2" y="10" width="3" height="3" fill="#e8863a"/>
  <rect x="2" y="13" width="3" height="3" fill="#e8863a"/>
  <rect x="2" y="16" width="3" height="3" fill="#e8863a"/>
  <rect x="2" y="19" width="3" height="3" fill="#e8863a"/>
  <rect x="2" y="22" width="3" height="3" fill="#e8863a"/>
  <rect x="5" y="25" width="3" height="3" fill="#e8863a"/>
  <rect x="8" y="25" width="3" height="3" fill="#e8863a"/>
  <rect x="11" y="25" width="3" height="3" fill="#e8863a"/>
  <rect x="11" y="22" width="3" height="3" fill="#e8863a"/>
  <rect x="11" y="19" width="3" height="3" fill="#e8863a"/>
  <rect x="11" y="16" width="3" height="3" fill="#e8863a"/>
  <rect x="8" y="16" width="3" height="3" fill="#e8863a"/>
  <!-- F -->
  <rect x="17" y="4" width="3" height="3" fill="#e8863a"/>
  <rect x="20" y="4" width="3" height="3" fill="#e8863a"/>
  <rect x="23" y="4" width="3" height="3" fill="#e8863a"/>
  <rect x="26" y="4" width="3" height="3" fill="#e8863a"/>
  <rect x="17" y="7" width="3" height="3" fill="#e8863a"/>
  <rect x="17" y="10" width="3" height="3" fill="#e8863a"/>
  <rect x="17" y="13" width="3" height="3" fill="#e8863a"/>
  <rect x="20" y="13" width="3" height="3" fill="#e8863a"/>
  <rect x="23" y="13" width="3" height="3" fill="#e8863a"/>
  <rect x="17" y="16" width="3" height="3" fill="#e8863a"/>
  <rect x="17" y="19" width="3" height="3" fill="#e8863a"/>
  <rect x="17" y="22" width="3" height="3" fill="#e8863a"/>
  <rect x="17" y="25" width="3" height="3" fill="#e8863a"/>
</svg>
